HIERARCHY
ROOT hip
{
  OFFSET 0 0 0
  CHANNELS 6 Xposition Yposition Zposition Zrotation Yrotation Xrotation
  JOINT abdomen
  {
    OFFSET 0 20.6881 -0.73152
    CHANNELS 3 Zrotation Xrotation Yrotation
    JOINT chest
    {
      OFFSET 0 11.7043 -0.48768
      CHANNELS 3 Zrotation Xrotation Yrotation
      JOINT neck
      {
        OFFSET 0 22.1894 -2.19456
        CHANNELS 3 Zrotation Xrotation Yrotation
        JOINT head
        {
          OFFSET -0.24384 7.07133 1.2192
          CHANNELS 3 Zrotation Xrotation Yrotation
          JOINT leftEye
          {
            OFFSET 4.14528 8.04674 8.04672
            CHANNELS 3 Zrotation Xrotation Yrotation
            End Site
            {
              OFFSET 1 0 0
            }
          }
          JOINT rightEye
          {
            OFFSET -3.6576 8.04674 8.04672
            CHANNELS 3 Zrotation Xrotation Yrotation
            End Site
            {
              OFFSET 1 0 0
            }
          }
        }
      }
      JOINT rCollar
      {
        OFFSET -2.68224 19.2634 -4.8768
        CHANNELS 3 Zrotation Xrotation Yrotation
        JOINT rShldr
        {
          OFFSET -8.77824 -1.95073 1.46304
          CHANNELS 3 Zrotation Xrotation Yrotation
          JOINT rForeArm
          {
            OFFSET -28.1742 -1.7115 0.48768
            CHANNELS 3 Zrotation Xrotation Yrotation
            JOINT rHand
            {
              OFFSET -22.5879 0.773209 7.07136
              CHANNELS 3 Zrotation Xrotation Yrotation
              JOINT rThumb1
              {
                OFFSET -1.2192 -0.487915 3.41376
                CHANNELS 3 Zrotation Xrotation Yrotation
                JOINT rThumb2
                {
                  OFFSET -3.37035 -0.52449 3.41376
                  CHANNELS 3 Zrotation Xrotation Yrotation
                  End Site
                  {
                    OFFSET -1.78271 -1.18214 1.43049
                  }
                }
              }
              JOINT rIndex1
              {
                OFFSET -7.75947 0.938293 5.60832
                CHANNELS 3 Zrotation Xrotation Yrotation
                JOINT rIndex2
                {
                  OFFSET -2.54057 -0.884171 1.56538
                  CHANNELS 3 Zrotation Xrotation Yrotation
                  End Site
                  {
                    OFFSET -1.62519 -0.234802 1.16502
                  }
                }
              }
              JOINT rMid1
              {
                OFFSET -8.24714 1.18213 3.41376
                CHANNELS 3 Zrotation Xrotation Yrotation
                JOINT rMid2
                {
                  OFFSET -3.10165 -0.590103 1.0647
                  CHANNELS 3 Zrotation Xrotation Yrotation
                  End Site
                  {
                    OFFSET -2.48547 -0.328903 0.83742
                  }
                }
              }
              JOINT rRing1
              {
                OFFSET -8.82822 0.546677 1.51678
                CHANNELS 3 Zrotation Xrotation Yrotation
                JOINT rRing2
                {
                  OFFSET -2.60934 -0.819778 -0.0198488
                  CHANNELS 3 Zrotation Xrotation Yrotation
                  End Site
                  {
                    OFFSET -2.33842 -0.294052 0.168128
                  }
                }
              }
              JOINT rPinky1
              {
                OFFSET -8.27202 -0.0477905 -0.4584
                CHANNELS 3 Zrotation Xrotation Yrotation
                JOINT rPinky2
                {
                  OFFSET -1.82734 -0.647385 -0.700984
                  CHANNELS 3 Zrotation Xrotation Yrotation
                  End Site
                  {
                    OFFSET -1.69225 -0.51767 -0.607171
                  }
                }
              }
            }
          }
        }
      }
      JOINT lCollar
      {
        OFFSET 2.68224 19.2634 -4.8768
        CHANNELS 3 Zrotation Xrotation Yrotation
        JOINT lShldr
        {
          OFFSET 8.77824 -1.95073 1.46304
          CHANNELS 3 Zrotation Xrotation Yrotation
          JOINT lForeArm
          {
            OFFSET 28.1742 -1.7115 0.48768
            CHANNELS 3 Zrotation Xrotation Yrotation
            JOINT lHand
            {
              OFFSET 22.5879 0.773209 7.07136
              CHANNELS 3 Zrotation Xrotation Yrotation
              JOINT lThumb1
              {
                OFFSET 1.2192 -0.487915 3.41376
                CHANNELS 3 Zrotation Xrotation Yrotation
                JOINT lThumb2
                {
                  OFFSET 3.37035 -0.52449 3.41376
                  CHANNELS 3 Zrotation Xrotation Yrotation
                  End Site
                  {
                    OFFSET 1.78271 -1.18214 1.43049
                  }
                }
              }
              JOINT lIndex1
              {
                OFFSET 7.75947 0.938293 5.60832
                CHANNELS 3 Zrotation Xrotation Yrotation
                JOINT lIndex2
                {
                  OFFSET 2.54057 -0.884171 1.56538
                  CHANNELS 3 Zrotation Xrotation Yrotation
                  End Site
                  {
                    OFFSET 1.62519 -0.234802 1.16502
                  }
                }
              }
              JOINT lMid1
              {
                OFFSET 8.24714 1.18213 3.41376
                CHANNELS 3 Zrotation Xrotation Yrotation
                JOINT lMid2
                {
                  OFFSET 3.10165 -0.590103 1.0647
                  CHANNELS 3 Zrotation Xrotation Yrotation
                  End Site
                  {
                    OFFSET 2.48547 -0.328903 0.83742
                  }
                }
              }
              JOINT lRing1
              {
                OFFSET 8.82822 0.546677 1.51678
                CHANNELS 3 Zrotation Xrotation Yrotation
                JOINT lRing2
                {
                  OFFSET 2.60934 -0.819778 -0.0198488
                  CHANNELS 3 Zrotation Xrotation Yrotation
                  End Site
                  {
                    OFFSET 2.33842 -0.294052 0.168128
                  }
                }
              }
              JOINT lPinky1
              {
                OFFSET 8.27202 -0.0477905 -0.4584
                CHANNELS 3 Zrotation Xrotation Yrotation
                JOINT lPinky2
                {
                  OFFSET 1.82734 -0.647385 -0.700984
                  CHANNELS 3 Zrotation Xrotation Yrotation
                  End Site
                  {
                    OFFSET 1.69225 -0.51767 -0.607171
                  }
                }
              }
            }
          }
        }
      }
    }
  }
  JOINT rButtock
  {
    OFFSET -8.77824 4.35084 1.2192
    CHANNELS 3 Zrotation Xrotation Yrotation
    JOINT rThigh
    {
      OFFSET 0 -1.70687 -2.19456
      CHANNELS 3 Zrotation Xrotation Yrotation
      JOINT rShin
      {
        OFFSET 0 -36.8199 0.73152
        CHANNELS 3 Zrotation Xrotation Yrotation
        JOINT rFoot
        {
          OFFSET 0.73152 -45.1104 -5.12064
          CHANNELS 3 Zrotation Xrotation Yrotation
          End Site
          {
            OFFSET -1.1221 -3.69964 12.103
          }
        }
      }
    }
  }
  JOINT lButtock
  {
    OFFSET 8.77824 4.35084 1.2192
    CHANNELS 3 Zrotation Xrotation Yrotation
    JOINT lThigh
    {
      OFFSET 0 -1.70687 -2.19456
      CHANNELS 3 Zrotation Xrotation Yrotation
      JOINT lShin
      {
        OFFSET 0 -36.8199 0.73152
        CHANNELS 3 Zrotation Xrotation Yrotation
        JOINT lFoot
        {
          OFFSET -0.73152 -45.1104 -5.12064
          CHANNELS 3 Zrotation Xrotation Yrotation
          End Site
          {
            OFFSET 1.1221 -3.69964 12.103
          }
        }
      }
    }
  }
}
MOTION
Frames:	4
Frame Time:	0.00833333
4.10945 83.5688 4.72532 0.0 0.0 0.0 -2.45637 6.59728e-06 -0.06642 -0.677103 0.0109129 -0.117187 4.17768e-15 0.0 4.96962e-16 1.29303e-14 3.18055e-15 1.58717e-15 -0.0 0.0 0.0 -0.0 0.0 0.0 2.68195e-15 -7.02735e-17 4.96962e-16 4.37368e-14 -1.14922e-15 6.36111e-15 7.33168e-13 -2.76708e-13 9.22361e-14 8.54106e-12 -3.0265e-14 1.07185e-12 2.01264e-11 -6.71985e-13 2.5349e-12 3.47503e-11 -1.16408e-12 4.38121e-12 2.01277e-11 -6.7229e-13 2.53172e-12 7.73091 5.47488 0.417314 2.0126e-11 -6.71992e-13 2.53808e-12 2.90554 0.965183 0.102902 2.01314e-11 -6.72389e-13 2.53808e-12 10.2786 0.731801 0.0259123 2.0117e-11 -6.69904e-13 2.54444e-12 2.22167 -0.733487 -0.20892 2.48657e-15 -6.09555e-17 9.93923e-17 4.25507e-14 -1.77043e-15 4.96962e-15 7.56227e-13 1.71154e-13 9.54166e-14 8.54338e-12 -4.99993e-13 1.08139e-12 2.01764e-11 -7.09959e-13 2.53808e-12 3.48521e-11 -1.22769e-12 4.37883e-12 2.01731e-11 -7.09661e-13 2.54126e-12 -7.73091 5.47488 -0.417314 2.01778e-11 -7.10854e-13 2.5349e-12 -2.90554 0.965183 -0.102902 2.0175e-11 -7.10556e-13 2.53331e-12 -10.2786 0.731801 -0.0259123 2.01836e-11 -7.06481e-13 2.52854e-12 -2.22167 -0.733487 0.20892 -2.03217e-16 0.0 -3.88251e-19 -1.3843 -1.93007 0.0058496 -0.0088085 -2.07862 -0.0724832 -0.480434 3.99895 0.135655 2.03217e-16 0.0 3.88251e-19 -2.35077 -8.19059 0.245977 -0.00624617 9.26113 -0.159995 0.52755 -1.08019 -0.0374371
3.59798 82.3861 -0.732267 176.439 89.6598 -162.831 -3.12895 -7.20736 -1.40606 0.0529054 -1.1277 -0.263842 -1.42946 1.53362 -0.573989 3.29549 -1.07906 -0.620691 -0.0 0.0 0.0 -0.0 0.0 0.0 1.74523e-14 -5.29132e-13 -1.00503e-14 11.0409 3.18638 -1.97762 -14.268 -11.4156 14.3247 0.0954147 -6.90471 -0.945638 1.10268e-10 6.78985e-10 -5.51092e-10 2.02277e-10 1.18756e-09 -9.51767e-10 1.10269e-10 6.78983e-10 -5.51096e-10 7.73091 5.47488 0.417314 1.10268e-10 6.78983e-10 -5.51088e-10 2.90554 0.965183 0.102902 1.10273e-10 6.78983e-10 -5.51088e-10 10.2786 0.731801 0.0259123 1.10259e-10 6.78986e-10 -5.51083e-10 2.22167 -0.733487 -0.20892 1.73144e-14 -5.29128e-13 -1.03888e-14 -13.2874 -3.14214 2.62447 12.9787 -10.0001 -13.8636 -0.177267 -9.36401 1.25347 3.58689e-11 1.46458e-09 5.80421e-10 4.5841e-11 2.54832e-09 1.00345e-09 3.58663e-11 1.46458e-09 5.80424e-10 -7.73091 5.47488 -0.417314 3.58722e-11 1.46458e-09 5.80418e-10 -2.90554 0.965183 -0.102902 3.58658e-11 1.46458e-09 5.80419e-10 -10.2786 0.731801 -0.0259123 3.58741e-11 1.46458e-09 5.80413e-10 -2.22167 -0.733487 0.20892 -2.03217e-16 0.0 -3.88251e-19 -3.20491 -6.52543 4.30607 0.00737253 1.10507 0.0803753 -1.22218 -0.215262 -7.28339 2.03217e-16 0.0 3.88251e-19 -1.78533 -11.3857 -6.36067 -0.00371573 9.60806 -0.148571 0.811817 -4.49106 6.7542
3.61744 82.3876 -0.634841 181.301 89.6367 -158.054 -4.21551 -14.83 -2.89659 0.819722 -2.33963 -0.418308 -2.90357 3.14702 -1.18134 6.74781 -2.18534 -1.27858 -0.0 0.0 0.0 -0.0 0.0 0.0 3.31727e-14 -1.089e-12 -2.12016e-14 22.8831 6.51662 -4.04881 -23.0498 -21.0499 31.1575 -0.0602038 -14.2882 -2.00507 2.06604e-10 1.43173e-09 -1.17044e-09 3.81857e-10 2.50429e-09 -2.0215e-09 2.06603e-10 1.43173e-09 -1.17044e-09 7.73091 5.47488 0.417314 2.06604e-10 1.43173e-09 -1.17044e-09 2.90554 0.965183 0.102902 2.06608e-10 1.43173e-09 -1.17044e-09 10.2786 0.731801 0.0259123 2.06595e-10 1.43173e-09 -1.17043e-09 2.22167 -0.733487 -0.20892 3.30994e-14 -1.08901e-12 -2.1475e-14 -26.9644 -6.46448 5.39332 21.4071 -18.5751 -29.7669 0.104937 -19.265 2.69734 6.15161e-11 3.10366e-09 1.22869e-09 7.20669e-11 5.40082e-09 2.12441e-09 6.15143e-11 3.10365e-09 1.22869e-09 -7.73091 5.47488 -0.417314 6.15216e-11 3.10365e-09 1.22869e-09 -2.90554 0.965183 -0.102902 6.15112e-11 3.10366e-09 1.22869e-09 -10.2786 0.731801 -0.0259123 6.1519e-11 3.10366e-09 1.22868e-09 -2.22167 -0.733487 0.20892 -2.03217e-16 0.0 -3.88251e-19 -4.37367 -11.2946 8.96683 0.0060209 4.46911 0.242555 -3.18034 -4.50645 -15.1732 2.03217e-16 0.0 3.88251e-19 -2.00689 -14.5176 -13.5183 -0.00119411 9.97469 -0.136478 1.9902 -7.92019 14.0268
3.63687 82.3866 -0.526292 188.055 89.5582 -151.389 -5.54966 -21.5718 -4.35775 1.4954 -3.4048 -0.557984 -4.19596 4.599 -1.72691 9.81626 -3.23567 -1.86472 -0.0 0.0 0.0 -0.0 0.0 0.0 4.6993e-14 -1.58726e-12 -3.11447e-14 33.7892 9.51327 -6.00658 -26.0753 -25.3962 47.9224 -0.437281 -20.6908 -3.01069 2.90552e-10 2.0383e-09 -1.65834e-09 5.3733e-10 3.56501e-09 -2.86406e-09 2.9055e-10 2.03829e-09 -1.65835e-09 7.73091 5.47488 0.417314 2.90553e-10 2.03829e-09 -1.65834e-09 2.90554 0.965183 0.102902 2.90556e-10 2.03829e-09 -1.65834e-09 10.2786 0.731801 0.0259123 2.90543e-10 2.0383e-09 -1.65834e-09 2.22167 -0.733487 -0.20892 4.69701e-14 -1.58726e-12 -3.13653e-14 -38.9917 -9.34681 7.96802 24.8964 -22.8101 -45.3128 0.835089 -28.0345 4.20435 6.72539e-11 4.39516e-09 1.73619e-09 6.78188e-11 7.64742e-09 3.0016e-09 6.72528e-11 4.39515e-09 1.73619e-09 -7.73091 5.47488 -0.417314 6.72611e-11 4.39516e-09 1.73618e-09 -2.90554 0.965183 -0.102902 6.72475e-11 4.39516e-09 1.73619e-09 -10.2786 0.731801 -0.0259123 6.7255e-11 4.39516e-09 1.73618e-09 -2.22167 -0.733487 0.20892 -2.03217e-16 0.0 -3.88251e-19 -4.72992 -15.3679 13.3067 -0.0114956 7.4723 0.389258 -5.92027 -8.00799 -22.3502 2.03217e-16 0.0 3.88251e-19 -2.89261 -16.9512 -20.1003 0.00092353 10.3019 -0.125669 3.78419 -10.6912 20.6493
